<?xml version="1.0" standalone="no"?>
<!DOCTYPE svg PUBLIC "-//W3C//DTD SVG 20010904//EN"
 "http://www.w3.org/TR/2001/REC-SVG-20010904/DTD/svg10.dtd">
<svg version="1.0" xmlns="http://www.w3.org/2000/svg"
 width="191.000000pt" height="62.000000pt" viewBox="0 0 191.000000 62.000000"
 preserveAspectRatio="xMidYMid meet">
<metadata>
Created by potrace 1.16, written by Peter Selinger 2001-2019
</metadata>
<g transform="translate(0.000000,62.000000) scale(0.100000,-0.100000)"
fill="#000000" stroke="none">
<path d="M672 488 l3 -113 41 -3 c22 -2 52 2 67 7 27 10 27 12 27 104 0 59 -4
97 -12 105 -7 7 -38 12 -70 12 l-59 0 3 -112z"/>
<path d="M882 548 c-7 -7 -12 -41 -12 -85 0 -81 9 -93 72 -93 40 0 58 15 58
47 0 29 -26 30 -33 2 -8 -30 -61 -23 -65 9 -3 19 1 22 28 22 52 0 70 16 70 59
0 26 -5 41 -16 45 -27 10 -89 7 -102 -6z"/>
<path d="M1060 546 c0 -10 13 -16 38 -18 30 -2 38 -7 40 -25 3 -19 -1 -23 -23
-23 -45 0 -65 -17 -65 -55 0 -24 6 -38 19 -45 27 -14 68 -13 74 3 4 10 6 10 6
0 1 -7 8 -13 16 -13 12 0 15 15 15 75 0 62 -4 79 -20 95 -24 24 -100 29 -100
6z"/>
<path d="M1230 221 c0 -124 8 -141 66 -141 52 0 74 28 74 95 0 67 -22 95 -75
95 -32 0 -35 2 -35 30 0 20 -5 30 -15 30 -12 0 -15 -19 -15 -109z"/>
<path d="M682 301 c-9 -5 -12 -24 -10 -57 l3 -48 48 -14 c44 -12 48 -16 45
-40 -2 -23 -8 -27 -33 -27 -22 0 -33 6 -40 23 -12 26 -29 24 -33 -5 -6 -42 80
-71 122 -40 13 10 17 24 14 57 -3 44 -4 45 -50 59 -43 13 -48 18 -48 43 0 25
4 28 31 28 22 0 32 -5 36 -20 3 -11 12 -20 19 -20 17 0 19 41 2 58 -14 14 -86
16 -106 3z"/>
<path d="M1420 255 c0 -10 10 -15 33 -15 34 0 57 -15 57 -37 0 -8 -14 -13 -39
-13 -47 0 -63 -18 -59 -62 3 -33 4 -33 63 -39 33 -3 63 -3 66 0 3 3 3 41 0 84
-7 88 -14 97 -78 97 -32 0 -43 -4 -43 -15z"/>
<path d="M1602 258 c-7 -7 -12 -40 -12 -79 0 -80 13 -99 70 -99 42 0 70 20 70
51 0 26 -24 24 -42 -3 -11 -16 -20 -20 -41 -14 -17 4 -27 13 -27 25 0 14 10
20 46 24 26 2 50 11 55 18 13 20 11 63 -3 77 -16 16 -100 16 -116 0z"/>
</g>
</svg>
